<?xml version="1.0" encoding="us-ascii" standalone="no"?><svg xmlns="http://www.w3.org/2000/svg" xmlns:xlink="http://www.w3.org/1999/xlink" contentStyleType="text/css" height="319px" preserveAspectRatio="none" style="width:921px;height:319px;background:#FFFFFF;" version="1.1" viewBox="0 0 921 319" width="921px" zoomAndPan="magnify"><defs/><g><!--cluster factory_method_wea--><g id="cluster_factory_method_wea"><path d="M8.5,6 L177.5,6 A3.75,3.75 0 0 1 180,8.5 L187,28.2969 L911.5,28.2969 A2.5,2.5 0 0 1 914,30.7969 L914,309.5 A2.5,2.5 0 0 1 911.5,312 L8.5,312 A2.5,2.5 0 0 1 6,309.5 L6,8.5 A2.5,2.5 0 0 1 8.5,6 " fill="none" style="stroke:#000000;stroke-width:1.5;"/><line style="stroke:#000000;stroke-width:1.5;" x1="6" x2="187" y1="28.2969" y2="28.2969"/><text fill="#000000" font-family="sans-serif" font-size="14" font-weight="bold" lengthAdjust="spacing" textLength="168" x="10" y="20.9951">factory_method_wea</text></g><!--cluster factory_method_wea.dart--><g id="cluster_factory_method_wea.dart"><path d="M32.5,49 L241.5,49 A3.75,3.75 0 0 1 244,51.5 L251,71.2969 L887.5,71.2969 A2.5,2.5 0 0 1 890,73.7969 L890,285.5 A2.5,2.5 0 0 1 887.5,288 L32.5,288 A2.5,2.5 0 0 1 30,285.5 L30,51.5 A2.5,2.5 0 0 1 32.5,49 " fill="none" style="stroke:#000000;stroke-width:1.5;"/><line style="stroke:#000000;stroke-width:1.5;" x1="30" x2="251" y1="71.2969" y2="71.2969"/><text fill="#000000" font-family="sans-serif" font-size="14" font-weight="bold" lengthAdjust="spacing" textLength="208" x="34" y="63.9951">factory_method_wea.dart</text></g><!--class Weather--><g id="elem_Weather"><rect codeLine="3" fill="#F1F1F1" height="64.2969" id="Weather" rx="2.5" ry="2.5" style="stroke:#181818;stroke-width:0.5;" width="171" x="552.5" y="84"/><ellipse cx="603.25" cy="100" fill="#A9DCDF" rx="11" ry="11" style="stroke:#181818;stroke-width:1.0;"/><path d="M605.3281,101.8125 L605.7188,102.7969 L605.3281,102.7969 C604.875,102.7969 604.7656,102.8125 604.6094,102.9219 C604.3594,103.0781 604.2031,103.3594 604.2031,103.6563 C604.2031,103.9219 604.3438,104.1719 604.5625,104.3281 C604.7031,104.4531 604.9063,104.5 605.3281,104.5 L607.6875,104.5 C608.0469,104.5 608.2656,104.4688 608.4063,104.375 C608.6563,104.2344 608.8125,103.9375 608.8125,103.6563 C608.8125,103.375 608.6719,103.125 608.4531,102.9688 C608.2813,102.8281 608.125,102.7969 607.6563,102.7969 L604.2656,94.5938 L600.5938,94.5938 C600.1406,94.5938 600.0156,94.6094 599.8594,94.7031 C599.6094,94.875 599.4531,95.1563 599.4531,95.4375 C599.4531,95.7188 599.5938,95.9688 599.8125,96.1406 C599.9844,96.25 600.1563,96.2813 600.5938,96.2813 L601.6719,96.2813 L599.0313,102.7969 C598.6094,102.7969 598.4531,102.8125 598.2969,102.9219 C598.0469,103.0781 597.8906,103.3594 597.8906,103.6563 C597.8906,104.2188 598.2656,104.5 599.0156,104.5 L601.2813,104.5 C601.6406,104.5 601.8594,104.4688 601.9844,104.375 C602.25,104.2344 602.3906,103.9375 602.3906,103.6563 C602.3906,103.375 602.2656,103.125 602.0469,102.9531 C601.875,102.8281 601.7344,102.7969 601.2813,102.7969 L600.8906,102.7969 L601.2813,101.8125 L605.3281,101.8125 Z M604.625,100.1094 L601.9531,100.1094 L603.2969,96.8438 L604.625,100.1094 Z " fill="#000000"/><text fill="#000000" font-family="sans-serif" font-size="14" font-style="italic" lengthAdjust="spacing" textLength="61" x="623.75" y="104.8467">Weather</text><line style="stroke:#181818;stroke-width:0.5;" x1="553.5" x2="722.5" y1="116" y2="116"/><line style="stroke:#181818;stroke-width:0.5;" x1="553.5" x2="722.5" y1="124" y2="124"/><ellipse cx="563.5" cy="137.6484" fill="#84BE84" rx="3" ry="3" style="stroke:#038048;stroke-width:1.0;"/><text fill="#000000" font-family="sans-serif" font-size="14" lengthAdjust="spacing" textLength="145" x="572.5" y="140.9951">String getWeather()</text></g><!--class Sunny--><g id="elem_Sunny"><rect codeLine="7" fill="#F1F1F1" height="64.2969" id="Sunny" rx="2.5" ry="2.5" style="stroke:#181818;stroke-width:0.5;" width="171" x="496.5" y="208"/><ellipse cx="556.25" cy="224" fill="#ADD1B2" rx="11" ry="11" style="stroke:#181818;stroke-width:1.0;"/><path d="M558.5938,219.6719 C557.6563,219.2344 557.0625,219.0938 556.1875,219.0938 C553.5625,219.0938 551.5625,221.1719 551.5625,223.8906 L551.5625,225.0156 C551.5625,227.5938 553.6719,229.4844 556.5625,229.4844 C557.7813,229.4844 558.9375,229.1875 559.6875,228.6406 C560.2656,228.2344 560.5938,227.7813 560.5938,227.3906 C560.5938,226.9375 560.2031,226.5469 559.7344,226.5469 C559.5156,226.5469 559.3125,226.625 559.125,226.8125 C558.6719,227.2969 558.6719,227.2969 558.4844,227.3906 C558.0625,227.6563 557.375,227.7813 556.6094,227.7813 C554.5625,227.7813 553.2656,226.6875 553.2656,224.9844 L553.2656,223.8906 C553.2656,222.1094 554.5156,220.7969 556.25,220.7969 C556.8281,220.7969 557.4375,220.9531 557.9063,221.2031 C558.3906,221.4844 558.5625,221.7031 558.6563,222.1094 C558.7188,222.5156 558.75,222.6406 558.8906,222.7656 C559.0313,222.9063 559.2656,223.0156 559.4844,223.0156 C559.75,223.0156 560.0156,222.875 560.1875,222.6563 C560.2969,222.5 560.3281,222.3125 560.3281,221.8906 L560.3281,220.4688 C560.3281,220.0313 560.3125,219.9063 560.2188,219.75 C560.0625,219.4844 559.7813,219.3438 559.4844,219.3438 C559.1875,219.3438 558.9844,219.4375 558.7656,219.75 L558.5938,219.6719 Z " fill="#000000"/><text fill="#000000" font-family="sans-serif" font-size="14" lengthAdjust="spacing" textLength="43" x="576.75" y="228.8467">Sunny</text><line style="stroke:#181818;stroke-width:0.5;" x1="497.5" x2="666.5" y1="240" y2="240"/><line style="stroke:#181818;stroke-width:0.5;" x1="497.5" x2="666.5" y1="248" y2="248"/><ellipse cx="507.5" cy="261.6484" fill="#84BE84" rx="3" ry="3" style="stroke:#038048;stroke-width:1.0;"/><text fill="#000000" font-family="sans-serif" font-size="14" lengthAdjust="spacing" textLength="145" x="516.5" y="264.9951">String getWeather()</text></g><!--class Rainy--><g id="elem_Rainy"><rect codeLine="13" fill="#F1F1F1" height="64.2969" id="Rainy" rx="2.5" ry="2.5" style="stroke:#181818;stroke-width:0.5;" width="171" x="702.5" y="208"/><ellipse cx="764.25" cy="224" fill="#ADD1B2" rx="11" ry="11" style="stroke:#181818;stroke-width:1.0;"/><path d="M766.5938,219.6719 C765.6563,219.2344 765.0625,219.0938 764.1875,219.0938 C761.5625,219.0938 759.5625,221.1719 759.5625,223.8906 L759.5625,225.0156 C759.5625,227.5938 761.6719,229.4844 764.5625,229.4844 C765.7813,229.4844 766.9375,229.1875 767.6875,228.6406 C768.2656,228.2344 768.5938,227.7813 768.5938,227.3906 C768.5938,226.9375 768.2031,226.5469 767.7344,226.5469 C767.5156,226.5469 767.3125,226.625 767.125,226.8125 C766.6719,227.2969 766.6719,227.2969 766.4844,227.3906 C766.0625,227.6563 765.375,227.7813 764.6094,227.7813 C762.5625,227.7813 761.2656,226.6875 761.2656,224.9844 L761.2656,223.8906 C761.2656,222.1094 762.5156,220.7969 764.25,220.7969 C764.8281,220.7969 765.4375,220.9531 765.9063,221.2031 C766.3906,221.4844 766.5625,221.7031 766.6563,222.1094 C766.7188,222.5156 766.75,222.6406 766.8906,222.7656 C767.0313,222.9063 767.2656,223.0156 767.4844,223.0156 C767.75,223.0156 768.0156,222.875 768.1875,222.6563 C768.2969,222.5 768.3281,222.3125 768.3281,221.8906 L768.3281,220.4688 C768.3281,220.0313 768.3125,219.9063 768.2188,219.75 C768.0625,219.4844 767.7813,219.3438 767.4844,219.3438 C767.1875,219.3438 766.9844,219.4375 766.7656,219.75 L766.5938,219.6719 Z " fill="#000000"/><text fill="#000000" font-family="sans-serif" font-size="14" lengthAdjust="spacing" textLength="39" x="784.75" y="228.8467">Rainy</text><line style="stroke:#181818;stroke-width:0.5;" x1="703.5" x2="872.5" y1="240" y2="240"/><line style="stroke:#181818;stroke-width:0.5;" x1="703.5" x2="872.5" y1="248" y2="248"/><ellipse cx="713.5" cy="261.6484" fill="#84BE84" rx="3" ry="3" style="stroke:#038048;stroke-width:1.0;"/><text fill="#000000" font-family="sans-serif" font-size="14" lengthAdjust="spacing" textLength="145" x="722.5" y="264.9951">String getWeather()</text></g><!--class WeatherCreator--><g id="elem_WeatherCreator"><rect codeLine="19" fill="#F1F1F1" height="64.2969" id="WeatherCreator" rx="2.5" ry="2.5" style="stroke:#181818;stroke-width:0.5;" width="211" x="204.5" y="84"/><ellipse cx="248.3" cy="100" fill="#A9DCDF" rx="11" ry="11" style="stroke:#181818;stroke-width:1.0;"/><path d="M250.3781,101.8125 L250.7688,102.7969 L250.3781,102.7969 C249.925,102.7969 249.8156,102.8125 249.6594,102.9219 C249.4094,103.0781 249.2531,103.3594 249.2531,103.6563 C249.2531,103.9219 249.3938,104.1719 249.6125,104.3281 C249.7531,104.4531 249.9563,104.5 250.3781,104.5 L252.7375,104.5 C253.0969,104.5 253.3156,104.4688 253.4563,104.375 C253.7063,104.2344 253.8625,103.9375 253.8625,103.6563 C253.8625,103.375 253.7219,103.125 253.5031,102.9688 C253.3313,102.8281 253.175,102.7969 252.7063,102.7969 L249.3156,94.5938 L245.6438,94.5938 C245.1906,94.5938 245.0656,94.6094 244.9094,94.7031 C244.6594,94.875 244.5031,95.1563 244.5031,95.4375 C244.5031,95.7188 244.6438,95.9688 244.8625,96.1406 C245.0344,96.25 245.2063,96.2813 245.6438,96.2813 L246.7219,96.2813 L244.0813,102.7969 C243.6594,102.7969 243.5031,102.8125 243.3469,102.9219 C243.0969,103.0781 242.9406,103.3594 242.9406,103.6563 C242.9406,104.2188 243.3156,104.5 244.0656,104.5 L246.3313,104.5 C246.6906,104.5 246.9094,104.4688 247.0344,104.375 C247.3,104.2344 247.4406,103.9375 247.4406,103.6563 C247.4406,103.375 247.3156,103.125 247.0969,102.9531 C246.925,102.8281 246.7844,102.7969 246.3313,102.7969 L245.9406,102.7969 L246.3313,101.8125 L250.3781,101.8125 Z M249.675,100.1094 L247.0031,100.1094 L248.3469,96.8438 L249.675,100.1094 Z " fill="#000000"/><text fill="#000000" font-family="sans-serif" font-size="14" font-style="italic" lengthAdjust="spacing" textLength="115" x="268.7" y="104.8467">WeatherCreator</text><line style="stroke:#181818;stroke-width:0.5;" x1="205.5" x2="414.5" y1="116" y2="116"/><line style="stroke:#181818;stroke-width:0.5;" x1="205.5" x2="414.5" y1="124" y2="124"/><ellipse cx="215.5" cy="137.6484" fill="#84BE84" rx="3" ry="3" style="stroke:#038048;stroke-width:1.0;"/><text fill="#000000" font-family="sans-serif" font-size="14" lengthAdjust="spacing" textLength="185" x="224.5" y="140.9951">Weather createWeather()</text></g><!--class SunnyCreator--><g id="elem_SunnyCreator"><rect codeLine="23" fill="#F1F1F1" height="64.2969" id="SunnyCreator" rx="2.5" ry="2.5" style="stroke:#181818;stroke-width:0.5;" width="192" x="46" y="208"/><ellipse cx="88.9" cy="224" fill="#ADD1B2" rx="11" ry="11" style="stroke:#181818;stroke-width:1.0;"/><path d="M91.2438,219.6719 C90.3063,219.2344 89.7125,219.0938 88.8375,219.0938 C86.2125,219.0938 84.2125,221.1719 84.2125,223.8906 L84.2125,225.0156 C84.2125,227.5938 86.3219,229.4844 89.2125,229.4844 C90.4313,229.4844 91.5875,229.1875 92.3375,228.6406 C92.9156,228.2344 93.2438,227.7813 93.2438,227.3906 C93.2438,226.9375 92.8531,226.5469 92.3844,226.5469 C92.1656,226.5469 91.9625,226.625 91.775,226.8125 C91.3219,227.2969 91.3219,227.2969 91.1344,227.3906 C90.7125,227.6563 90.025,227.7813 89.2594,227.7813 C87.2125,227.7813 85.9156,226.6875 85.9156,224.9844 L85.9156,223.8906 C85.9156,222.1094 87.1656,220.7969 88.9,220.7969 C89.4781,220.7969 90.0875,220.9531 90.5563,221.2031 C91.0406,221.4844 91.2125,221.7031 91.3063,222.1094 C91.3688,222.5156 91.4,222.6406 91.5406,222.7656 C91.6813,222.9063 91.9156,223.0156 92.1344,223.0156 C92.4,223.0156 92.6656,222.875 92.8375,222.6563 C92.9469,222.5 92.9781,222.3125 92.9781,221.8906 L92.9781,220.4688 C92.9781,220.0313 92.9625,219.9063 92.8688,219.75 C92.7125,219.4844 92.4313,219.3438 92.1344,219.3438 C91.8375,219.3438 91.6344,219.4375 91.4156,219.75 L91.2438,219.6719 Z " fill="#000000"/><text fill="#000000" font-family="sans-serif" font-size="14" lengthAdjust="spacing" textLength="98" x="109.1" y="228.8467">SunnyCreator</text><line style="stroke:#181818;stroke-width:0.5;" x1="47" x2="237" y1="240" y2="240"/><line style="stroke:#181818;stroke-width:0.5;" x1="47" x2="237" y1="248" y2="248"/><ellipse cx="57" cy="261.6484" fill="#84BE84" rx="3" ry="3" style="stroke:#038048;stroke-width:1.0;"/><text fill="#000000" font-family="sans-serif" font-size="14" lengthAdjust="spacing" textLength="166" x="66" y="264.9951">Sunny createWeather()</text></g><!--class RainyCreator--><g id="elem_RainyCreator"><rect codeLine="29" fill="#F1F1F1" height="64.2969" id="RainyCreator" rx="2.5" ry="2.5" style="stroke:#181818;stroke-width:0.5;" width="188" x="273" y="208"/><ellipse cx="315.9" cy="224" fill="#ADD1B2" rx="11" ry="11" style="stroke:#181818;stroke-width:1.0;"/><path d="M318.2438,219.6719 C317.3063,219.2344 316.7125,219.0938 315.8375,219.0938 C313.2125,219.0938 311.2125,221.1719 311.2125,223.8906 L311.2125,225.0156 C311.2125,227.5938 313.3219,229.4844 316.2125,229.4844 C317.4313,229.4844 318.5875,229.1875 319.3375,228.6406 C319.9156,228.2344 320.2438,227.7813 320.2438,227.3906 C320.2438,226.9375 319.8531,226.5469 319.3844,226.5469 C319.1656,226.5469 318.9625,226.625 318.775,226.8125 C318.3219,227.2969 318.3219,227.2969 318.1344,227.3906 C317.7125,227.6563 317.025,227.7813 316.2594,227.7813 C314.2125,227.7813 312.9156,226.6875 312.9156,224.9844 L312.9156,223.8906 C312.9156,222.1094 314.1656,220.7969 315.9,220.7969 C316.4781,220.7969 317.0875,220.9531 317.5563,221.2031 C318.0406,221.4844 318.2125,221.7031 318.3063,222.1094 C318.3688,222.5156 318.4,222.6406 318.5406,222.7656 C318.6813,222.9063 318.9156,223.0156 319.1344,223.0156 C319.4,223.0156 319.6656,222.875 319.8375,222.6563 C319.9469,222.5 319.9781,222.3125 319.9781,221.8906 L319.9781,220.4688 C319.9781,220.0313 319.9625,219.9063 319.8688,219.75 C319.7125,219.4844 319.4313,219.3438 319.1344,219.3438 C318.8375,219.3438 318.6344,219.4375 318.4156,219.75 L318.2438,219.6719 Z " fill="#000000"/><text fill="#000000" font-family="sans-serif" font-size="14" lengthAdjust="spacing" textLength="94" x="336.1" y="228.8467">RainyCreator</text><line style="stroke:#181818;stroke-width:0.5;" x1="274" x2="460" y1="240" y2="240"/><line style="stroke:#181818;stroke-width:0.5;" x1="274" x2="460" y1="248" y2="248"/><ellipse cx="284" cy="261.6484" fill="#84BE84" rx="3" ry="3" style="stroke:#038048;stroke-width:1.0;"/><text fill="#000000" font-family="sans-serif" font-size="14" lengthAdjust="spacing" textLength="162" x="293" y="264.9951">Rainy createWeather()</text></g><!--reverse link Weather to Sunny--><g id="link_Weather_Sunny"><path codeLine="11" d="M615.314,166.422 C608.872,180.458 602.039,195.343 596.25,207.955 " fill="none" id="Weather-backto-Sunny" style="stroke:#181818;stroke-width:1.0;"/><polygon fill="none" points="609.019,163.358,623.724,148.101,621.742,169.198,609.019,163.358" style="stroke:#181818;stroke-width:1.0;"/></g><!--reverse link Weather to Rainy--><g id="link_Weather_Rainy"><path codeLine="17" d="M691.773,160.735 C710.979,176.356 732.209,193.623 749.83,207.955 " fill="none" id="Weather-backto-Rainy" style="stroke:#181818;stroke-width:1.0;"/><polygon fill="none" points="687.339,166.152,676.239,148.101,696.172,155.291,687.339,166.152" style="stroke:#181818;stroke-width:1.0;"/></g><!--reverse link WeatherCreator to SunnyCreator--><g id="link_WeatherCreator_SunnyCreator"><path codeLine="27" d="M250.741,160.033 C228.978,175.838 204.782,193.408 184.75,207.955 " fill="none" id="WeatherCreator-backto-SunnyCreator" style="stroke:#181818;stroke-width:1.0;"/><polygon fill="none" points="246.876,154.189,267.172,148.101,255.102,165.518,246.876,154.189" style="stroke:#181818;stroke-width:1.0;"/></g><!--reverse link WeatherCreator to RainyCreator--><g id="link_WeatherCreator_RainyCreator"><path codeLine="33" d="M333.091,166.422 C339.648,180.458 346.603,195.343 352.496,207.955 " fill="none" id="WeatherCreator-backto-RainyCreator" style="stroke:#181818;stroke-width:1.0;"/><polygon fill="none" points="326.655,169.184,324.531,148.101,339.339,163.258,326.655,169.184" style="stroke:#181818;stroke-width:1.0;"/></g><!--SRC=[pP8n3e9044NxFSM4IcFm01ixRo259HcN4KXa8RD3357lhk1Q48t5Ga6tUSNVzpFVaO35Ybo3XX9ga55g1gsLmfCJHYDWBkWSHEVNk-OkhKYAEaklX5f_iss6B5eV2QKWZk2c03Q9S6bpo4ayNwtLGwcGuAIrjliV6sYwkyTna4nOaGEMoodobfddvdkcVaE-ceTWUahpd7_ymu1-vK-p3vt39s32AiRz1hI8VYEv9m00]--></g></svg>